<svg width="18" height="18" viewBox="0 0 18 18" fill="none" xmlns="http://www.w3.org/2000/svg">
<path d="M9.67018 18C9.52352 18 9.37685 18 9.23018 17.9916C4.39875 17.7823 0.361049 14.0069 0.0245742 9.40269C-0.268763 5.45144 2.08656 1.7597 5.88269 0.211013C6.96113 -0.224294 7.53055 0.110558 7.77212 0.353325C8.01369 0.587721 8.35017 1.13185 7.90153 2.12804C7.50467 3.01539 7.30623 3.96135 7.31486 4.93242C7.33212 8.6409 10.5071 11.7885 14.3808 11.9392C14.9416 11.9643 15.4938 11.9224 16.0287 11.8304C17.1675 11.6294 17.642 12.0731 17.8232 12.3578C18.0044 12.6424 18.2115 13.2535 17.5213 14.1576C15.6922 16.5853 12.7847 18 9.67018 18ZM1.31008 9.3106C1.60342 13.2953 5.10621 16.5601 9.28194 16.7359C12.1204 16.8699 14.8122 15.6142 16.4687 13.4209C16.5981 13.2451 16.6585 13.1195 16.6844 13.0526C16.6067 13.0442 16.4687 13.0358 16.253 13.0777C15.6232 13.1865 14.9675 13.2284 14.3204 13.2033C9.76509 13.0275 6.03798 9.31897 6.0121 4.94916C6.0121 3.79392 6.24504 2.68054 6.71956 1.63413C6.80583 1.44996 6.82309 1.32439 6.83172 1.25742C6.75407 1.25742 6.61603 1.27417 6.39171 1.36625C3.10461 2.70566 1.06851 5.90349 1.31008 9.3106Z" fill="#9C9BD6"/>
</svg>
